<?xml version="1.0" encoding="UTF-8"?><svg id="Calque_2" xmlns="http://www.w3.org/2000/svg" xmlns:xlink="http://www.w3.org/1999/xlink" viewBox="0 0 75 70.24"><defs><style>.cls-1{fill:none;}.cls-2{clip-path:url(#clippath);}.cls-3{fill:#e4e4e5;}</style><clipPath id="clippath"><rect class="cls-1" x="0" y="0" width="75" height="70.24"/></clipPath></defs><g id="Calque_1-2"><g><polygon class="cls-3" points="16.4 51.5 23.56 51.5 21.39 44.89 16.4 51.5"/><polygon class="cls-3" points="43.59 51.5 50.52 51.5 48.35 44.89 43.59 51.5"/><g class="cls-2"><path class="cls-3" d="m54.68,65.62c-.23-1.62-.46-2.4-.75-3.32l-2.37-7.53h-10.51l-1.91,2.48,1.7,5.11c.35,1.07.69,1.91,1.33,3.26h-5.98l-.98-3.26-2.4,3.26h-4.79l-1.04-3.26-2.51,3.26h-4.82c.12-.09.23-.2.32-.29,1.21-1.07,1.99-2.05,2.66-2.94l3.06-4.01-1.21-3.61h-10.48l-8.2,10.86H.72c1.93-1.67,2.45-2.19,3.15-3.15l15.53-20.53c.23-.29.4-.58.58-.87.29-.49.55-1.04.69-1.7h5.05c0,1.13.14,1.73.4,2.6l3.52,11.09,1.82-2.4-2.89-8.8c-.23-.66-.49-1.47-1.01-2.48h6.12c.17.98.32,1.76.61,2.63l1.1,3.46,2.63-3.49c.61-.81,1.41-1.73,1.79-2.6h5.34c-1.04.84-1.73,1.7-2.37,2.54l-5.92,7.85,1.04,3.26,8.46-11.09c.23-.32.46-.61.69-.92.32-.49.58-.98.75-1.65h4.99c.06.87.17,1.65.43,2.45l6.41,20.5c.32,1.1.52,1.76,1.33,3.29h-6.29ZM74.13,0l-28.7,38.02h-4.39L69.75,0H0v70.24h75V0h-.87Z"/></g><polygon class="cls-3" points="30.98 57.1 32.1 60.71 33.95 58.31 32.68 54.76 30.98 57.1"/></g></g></svg>