<?xml version="1.0" encoding="UTF-8"?><svg id="Calque_2" xmlns="http://www.w3.org/2000/svg" xmlns:xlink="http://www.w3.org/1999/xlink" viewBox="0 0 19.49 18.6"><defs><style>.cls-1{fill:none;}.cls-2{clip-path:url(#clippath);}.cls-3{fill:#f6f5f3;}.cls-4{fill:#3a5ba7;}.cls-5{clip-path:url(#clippath-1);}</style><clipPath id="clippath"><rect class="cls-1" x="0" width="19.49" height="18.6"/></clipPath><clipPath id="clippath-1"><rect class="cls-1" x="0" width="19.49" height="18.6"/></clipPath></defs><g id="Calque_1-2"><g><g class="cls-2"><path class="cls-4" d="m18.42,18.6c.59,0,1.08-.46,1.08-1.03V1.03c0-.57-.48-1.03-1.08-1.03H1.08C.48,0,0,.46,0,1.03v16.55c0,.57.48,1.03,1.08,1.03h17.34Z"/></g><g class="cls-5"><path class="cls-3" d="m13.45,18.6v-7.2h2.53l.38-2.81h-2.91v-1.79c0-.81.24-1.37,1.46-1.37h1.56v-2.51c-.27-.03-1.19-.11-2.27-.11-2.25,0-3.78,1.31-3.78,3.71v2.07h-2.54v2.81h2.54v7.2h3.04Z"/></g></g></g></svg>