<?xml version="1.0" encoding="UTF-8"?><svg id="Calque_2" xmlns="http://www.w3.org/2000/svg" xmlns:xlink="http://www.w3.org/1999/xlink" viewBox="0 0 119.35 59.16"><defs><style>.cls-1{fill:none;}.cls-2{clip-path:url(#clippath);}.cls-3{fill:#f2dabd;}.cls-4{fill:#325c85;}.cls-5{clip-path:url(#clippath-1);}.cls-6{clip-path:url(#clippath-4);}.cls-7{clip-path:url(#clippath-3);}.cls-8{clip-path:url(#clippath-2);}.cls-9{clip-path:url(#clippath-7);}.cls-10{clip-path:url(#clippath-8);}.cls-11{clip-path:url(#clippath-6);}.cls-12{clip-path:url(#clippath-5);}.cls-13{clip-path:url(#clippath-9);}.cls-14{clip-path:url(#clippath-10);}</style><clipPath id="clippath"><rect class="cls-1" width="119.35" height="59.16"/></clipPath><clipPath id="clippath-1"><rect class="cls-1" width="119.35" height="59.16"/></clipPath><clipPath id="clippath-2"><rect class="cls-1" width="119.35" height="59.16"/></clipPath><clipPath id="clippath-3"><rect class="cls-1" width="119.35" height="59.16"/></clipPath><clipPath id="clippath-4"><rect class="cls-1" width="119.35" height="59.16"/></clipPath><clipPath id="clippath-5"><rect class="cls-1" width="119.35" height="59.16"/></clipPath><clipPath id="clippath-6"><rect class="cls-1" width="119.35" height="59.16"/></clipPath><clipPath id="clippath-7"><rect class="cls-1" width="119.35" height="59.16"/></clipPath><clipPath id="clippath-8"><rect class="cls-1" width="119.35" height="59.16"/></clipPath><clipPath id="clippath-9"><rect class="cls-1" width="119.35" height="59.16"/></clipPath><clipPath id="clippath-10"><rect class="cls-1" width="119.35" height="59.16"/></clipPath></defs><g id="Calque_1-2"><g><g class="cls-2"><path class="cls-4" d="m.23,53.92c0-3.09,2.21-5.28,5.35-5.28,1.43,0,2.7.52,3.68,1.44l-.83,1.05c-.83-.77-1.78-1.15-2.87-1.15-2.3,0-3.87,1.59-3.87,3.88s1.59,3.94,3.9,3.94c1.11,0,2.06-.33,2.91-1.11l.85,1.05c-.95.91-2.22,1.4-3.79,1.4-3.14,0-5.34-2.17-5.34-5.23"/></g><g class="cls-5"><path class="cls-4" d="m25.97,53.92c0-2.38-1.52-3.98-3.74-3.98s-3.77,1.6-3.77,3.93,1.52,3.99,3.74,3.99,3.77-1.62,3.77-3.93m-8.98,0c0-3.15,2.12-5.3,5.26-5.3s5.18,2.15,5.18,5.24-2.12,5.3-5.27,5.3-5.18-2.15-5.18-5.24"/></g><g class="cls-8"><path class="cls-4" d="m36.24,48.84h1.38l5.02,6.79c.47.64.61.84.75,1.04l.03-.02c-.01-.23-.03-.48-.03-.84v-6.97h1.42v10.11h-1.37l-5.03-6.79c-.47-.64-.61-.84-.75-1.04h-.03c.01.24.03.49.03.85v6.97h-1.4v-10.11Z"/></g><g class="cls-7"><path class="cls-4" d="m53.61,57.8l.7-1.05c.85.62,1.97,1.08,3.22,1.08,1.39,0,2.46-.65,2.46-1.76,0-.92-.64-1.47-2.54-1.78-2.41-.38-3.54-1.21-3.54-2.76,0-1.75,1.59-2.9,3.67-2.9,1.29,0,2.38.3,3.41,1.08l-.78,1.01c-.73-.56-1.7-.81-2.59-.81-1.3,0-2.3.59-2.3,1.55,0,.87.72,1.27,2.51,1.59,2.59.46,3.57,1.39,3.57,2.99,0,1.94-1.59,3.11-3.89,3.11-1.59,0-2.98-.56-3.9-1.34"/></g><polygon class="cls-4" points="70.08 48.84 70.08 58.94 77.11 58.94 77.11 57.63 71.48 57.63 71.48 54.47 76.76 54.47 76.76 53.17 71.48 53.17 71.48 50.14 77.02 50.14 77.02 48.84 70.08 48.84"/><rect class="cls-4" x="86.08" y="48.84" width="1.4" height="10.11"/><polygon class="cls-4" points="96.97 48.84 96.97 58.94 103.89 58.94 103.89 57.64 98.38 57.64 98.38 48.84 96.97 48.84"/><g class="cls-6"><path class="cls-4" d="m111.55,57.8l.7-1.05c.85.62,1.97,1.08,3.22,1.08,1.39,0,2.46-.65,2.46-1.76,0-.92-.64-1.47-2.54-1.78-2.41-.38-3.54-1.21-3.54-2.76,0-1.75,1.59-2.9,3.67-2.9,1.29,0,2.38.3,3.41,1.08l-.78,1.01c-.73-.56-1.7-.81-2.59-.81-1.3,0-2.3.59-2.3,1.55,0,.87.72,1.27,2.52,1.59,2.59.46,3.57,1.39,3.57,2.99,0,1.94-1.59,3.11-3.89,3.11-1.59,0-2.98-.56-3.9-1.34"/></g><g class="cls-12"><path class="cls-3" d="m34.28,7.61C28.42.19,18.94-2.54,10.04,2.75c-.23.14-.29.44-.12.65h0c.12.16.34.22.52.14,5.6-2.27,11.57,2.13,17.19,9.25,5.68,7.19,8.51,13.92,4.9,18.72-.12.16-.12.38,0,.54.17.21.48.23.67.04,7.36-7.25,6.93-17.07,1.07-24.48"/></g><g class="cls-11"><path class="cls-4" d="m11.1,25.53C5.42,18.34,2.59,11.61,6.2,6.82c.12-.16.12-.38,0-.54h0c-.17-.21-.48-.23-.67-.04C-1.82,13.46-1.47,23.22,4.39,30.63c5.86,7.41,15.42,10.19,24.31,4.94.23-.14.29-.44.12-.65h0c-.12-.16-.34-.22-.52-.14-5.6,2.27-11.56-2.13-17.19-9.25"/></g><g class="cls-9"><path class="cls-4" d="m49.05,31.34v-10.52l-1.31-1.66.04,11.86c0,3.8-2.82,5.2-4.9,5.2v1h12.55v-1c-5.01-.26-6.38-1.97-6.38-4.89"/></g><g class="cls-10"><path class="cls-4" d="m70.81,2.08c5.01.26,6.38,2.14,6.38,5.06v21.43L55.82,1.4c-.15-.19-.39-.31-.64-.31h-11.88v1h1.24c.46,0,1.38.19,1.98.59.06.04.12.09.18.13.02.01.03.03.05.03,1.16.92,1.94,2.11,1.94,2.11l25.59,32.34c.13.17.34.27.55.27h3.17c.25,0,.45-.2.45-.44v-5.67h0s0-24.16,0-24.16c0-3.8,2.82-5.2,4.9-5.2v-1h-12.55v1Z"/></g><g class="cls-13"><path class="cls-4" d="m118.76,24.69c-.12,0-.23.08-.27.19l-.58,1.64c-2.5,7.13-4.84,9.69-11.14,9.69h-3.04c-2.23,0-2.55-1.54-2.55-8.1v-8.91h4.11c2.05,0,3.79,2.13,4.75,5.22l.32.99c.04.12.15.19.27.19.16,0,.28-.12.28-.28v-13.28c0-.15-.13-.28-.28-.28-.12,0-.23.08-.27.19l-.32.98c-.98,3.16-2.72,5.26-4.89,5.26h-3.96v-8.32c0-.72,0-1.38.01-1.98V1.6c0-.28-.23-.52-.52-.52h-11.39v1h1.65c.33,0,1.36.13,1.7.71.56,1,.72,3.02.72,7.09v18.56c0,3.67-.14,5.67-.57,6.76,0,0,0,0,0,.01-.02.06-.05.12-.08.18-.36.68-1.19.81-1.61.83h-1.82v1h.23s.07.02.1.02h28.85c.32,0,.58-.26.58-.57v-11.69c0-.16-.13-.28-.29-.28"/></g><g class="cls-14"><path class="cls-4" d="m107.26,2.08c1.05.04,2.45.21,3.74.8.31.15.62.32.91.51.07.05.14.09.2.13,2.04,1.35,3.6,3.54,4.7,6.69l.58,1.64c.04.11.15.19.27.19.16,0,.29-.13.29-.28V1.48c0-.22-.18-.39-.39-.39h-12.25v1h1.94Z"/></g></g></g></svg>