<?xml version="1.0" encoding="UTF-8"?><svg id="Calque_2" xmlns="http://www.w3.org/2000/svg" xmlns:xlink="http://www.w3.org/1999/xlink" viewBox="0 0 98.12 55.47"><defs><style>.cls-1{fill:none;}.cls-2{clip-path:url(#clippath);}.cls-3{fill:#e4e4e5;}.cls-4{clip-path:url(#clippath-1);}.cls-5{clip-path:url(#clippath-4);}.cls-6{clip-path:url(#clippath-3);}.cls-7{clip-path:url(#clippath-2);}.cls-8{clip-path:url(#clippath-5);}</style><clipPath id="clippath"><rect class="cls-1" width="98.12" height="55.47"/></clipPath><clipPath id="clippath-1"><rect class="cls-1" width="98.12" height="55.47"/></clipPath><clipPath id="clippath-2"><rect class="cls-1" width="98.12" height="55.47"/></clipPath><clipPath id="clippath-3"><rect class="cls-1" width="98.12" height="55.47"/></clipPath><clipPath id="clippath-4"><rect class="cls-1" width="98.12" height="55.47"/></clipPath><clipPath id="clippath-5"><rect class="cls-1" width="98.12" height="55.47"/></clipPath></defs><g id="Calque_1-2"><g><g class="cls-2"><path class="cls-3" d="m70.44,38.19c-.77,0-1.32.36-1.46,1.37h2.78c-.08-.96-.56-1.37-1.32-1.37"/></g><g class="cls-4"><path class="cls-3" d="m50.09,38.27c-.41,0-.75.16-1.06.51v3.63c.16.1.41.2.83.2.64,0,1.51-.23,1.51-2.29,0-1.37-.43-2.04-1.28-2.04"/></g><g class="cls-7"><path class="cls-3" d="m83.49,38.19c-.77,0-1.32.36-1.46,1.37h2.78c-.08-.96-.56-1.37-1.32-1.37"/></g><g class="cls-6"><path class="cls-3" d="m41.88,38.27c-.82,0-1.26.77-1.26,2.14s.44,2.13,1.26,2.13,1.26-.74,1.26-2.13c.02-1.39-.42-2.14-1.26-2.14"/></g><g class="cls-5"><path class="cls-3" d="m86.78,41.08h-4.73c.1,1.15.75,1.55,1.83,1.55.57,0,1.19-.16,1.64-.46l.1-.08,1.03,1.44c-.49.48-1.41,1.05-2.98,1.05-2.58,0-3.96-1.8-3.96-4.3,0-2.09,1.34-4.06,3.73-4.06,2.03,0,3.4,1.36,3.35,4.01,0,.21-.02.85-.02.85m-7.41-2.83s-.28-.03-.47-.03c-.69,0-1.21.38-1.54.98v5.2h-2.32v-7.98h1.88l.33.78c.29-.52.82-.93,2.04-.93h.38l-.29,1.98Zm-5.66,2.83h-4.71c.1,1.15.75,1.55,1.83,1.55.59,0,1.19-.16,1.63-.46l.08-.08,1.03,1.44c-.49.48-1.41,1.05-2.98,1.05-2.58,0-3.96-1.8-3.96-4.3,0-2.09,1.34-4.06,3.73-4.06,2.03,0,3.4,1.36,3.35,4.01,0,.21-.02.85-.02.85m-8.31-6.54c.02.72-.43,1.16-1.18,1.16s-1.18-.43-1.18-1.16v-.07c0-.72.43-1.14,1.18-1.14s1.18.41,1.18,1.14v.07Zm-.02,9.86h-2.32v-7.98h2.32v7.98Zm-4.01,0h-2.32v-11.07l2.32-.33v11.4Zm-3.99-9.86c0,.72-.44,1.16-1.18,1.16s-1.18-.43-1.18-1.16v-.07c0-.72.42-1.14,1.18-1.14s1.18.41,1.18,1.14v.07Zm-.02,9.86h-2.32v-7.98h2.32v7.98Zm-7.62.2c-1.73,0-2.62-.6-2.99-.87l-.05-.03v-10.37l2.32-.31v4.01c.34-.34.95-.78,1.9-.78,1.78,0,2.81,1.37,2.81,3.79,0,3.02-1.34,4.56-3.99,4.56m-7.87,0c-2.68,0-3.63-2.24-3.63-4.17,0-3.09,1.88-4.19,3.63-4.19s3.63,1.1,3.63,4.19-1.87,4.17-3.63,4.17m-6.9-.2l-.36-6-2.31,6h-1.77l-2.31-6-.36,6h-2.34l.72-11.07h2.49l2.7,7.26,2.7-7.26h2.45l.72,11.07h-2.34Zm-12.58-1.16c0,.24-.13.72-.26.93v.02h-.02c-.51.2-1.54.38-1.98.38h-.02l-.02-.02c-.18-.31-.36-.8-.43-1.19h-.02c-.64.9-1.62,1.23-2.34,1.23-.82,0-2.17-.39-2.17-2.99,0-1.41.39-2.78,1.1-3.74.54-.75,1.52-1.65,3.09-1.65,1.24,0,2.09.48,2.49.75l.02.02-.8,6.07s.03.2.07.29l1.29-.13v.05Zm-8.19-.02c0,.26-.15.72-.28.95v.02h-.02c-.52.2-1.49.38-1.98.38h-.02l-.02-.02c-.31-.36-.59-.95-.59-1.24l1.21-9.19-1.18.13v-.05c0-.16.15-.7.31-.87.36-.18.91-.39,1.63-.39.18,0,.56.03.69.06l.03.02-1.19,10.07s.03.16.08.21l1.31-.13v.05Zm53.48-9.81h2.47l1.8,2.24h-1.59l-2.68-1.72v-.52ZM0,55.47h98.12V0H0v55.47Z"/></g><g class="cls-8"><path class="cls-3" d="m17.35,38.37c-.49.82-.7,2.11-.7,3.04,0,1.28.46,1.96,1.34,1.96.64,0,1.31-.46,1.7-1.18l.67-4.81c-.26-.15-.65-.23-1.03-.23-.78,0-1.52.46-1.98,1.21"/></g></g></g></svg>