<?xml version="1.0" encoding="UTF-8"?><svg id="Calque_2" xmlns="http://www.w3.org/2000/svg" xmlns:xlink="http://www.w3.org/1999/xlink" viewBox="0 0 55.78 55.77"><defs><style>.cls-1{fill:none;}.cls-2{clip-path:url(#clippath);}.cls-3{fill:#e3f5fa;}.cls-4{fill:#a8def2;}.cls-5{fill:#52bae5;}.cls-6{fill:#99d6f0;}.cls-7{clip-path:url(#clippath-1);}.cls-8{clip-path:url(#clippath-4);}.cls-9{clip-path:url(#clippath-3);}.cls-10{clip-path:url(#clippath-2);}.cls-11{clip-path:url(#clippath-5);}</style><clipPath id="clippath"><rect class="cls-1" width="55.78" height="55.77"/></clipPath><clipPath id="clippath-1"><rect class="cls-1" width="55.78" height="55.77"/></clipPath><clipPath id="clippath-2"><rect class="cls-1" width="55.78" height="55.77"/></clipPath><clipPath id="clippath-3"><rect class="cls-1" width="55.78" height="55.77"/></clipPath><clipPath id="clippath-4"><rect class="cls-1" width="55.78" height="55.77"/></clipPath><clipPath id="clippath-5"><rect class="cls-1" width="55.78" height="55.77"/></clipPath></defs><g id="Calque_1-2"><g><g class="cls-2"><path class="cls-4" d="m55.18,33.49c-1.13,4.97-3.81,9.58-7.71,13.44.11-.03.22-.08.31-.17,4.02-4.01,6.43-8.57,7.4-13.26m-3.91-14.3c0-1.57-.32-3.13-.99-4.65-.04-.08-.06-.17-.06-.26,0-.19.08-.37.24-.5h0c.2-.17.46-.19.67-.1-.56-.88-1.17-1.75-1.83-2.59-.93-1.19-1.92-2.29-2.96-3.31.03.08.04.15.04.24,0,.19-.08.37-.24.5h0c-.22.19-.54.2-.78.03-4.32-3.04-9.6-2.65-15.38.02,3.29,2.51,6.56,5.99,9.76,10.08,3.06,3.92,5.55,7.76,7.19,11.38,2.74-3.65,4.34-7.29,4.34-10.84M32.97.49c-5.91-1.21-12.32-.21-18.53,3.53-.09.05-.16.12-.21.2C20.05.65,26.61-.74,32.97.49"/></g><g class="cls-7"><path class="cls-3" d="m55.78,28.14c0-4.68-1.37-9.52-4.35-14.21-.07-.11-.17-.2-.29-.25,2.95,4.64,4.54,9.76,4.54,14.89,0,1.65-.17,3.3-.5,4.93.4-1.75.6-3.54.6-5.35m-6.67,10.62c0-2.72-.78-5.65-2.18-8.73-2.4,3.2-5.67,6.41-9.52,9.56-10.28,8.43-19.98,12.73-27.09,7.71-.24-.17-.56-.16-.78.03-.16.13-.24.32-.24.5,0,.17.07.34.2.47,10.82,10.33,25.1,9.36,35.69.67.79-.65,1.55-1.33,2.26-2.03-.24.05-.5-.03-.66-.23-.09-.12-.14-.26-.14-.4s.04-.27.13-.39c1.59-2.14,2.31-4.55,2.31-7.15"/></g><g class="cls-10"><path class="cls-6" d="m55.68,28.56c0-5.12-1.59-10.25-4.54-14.89-.22-.09-.47-.07-.67.09h0c-.15.13-.24.32-.24.51,0,.09.02.18.05.26.67,1.53.99,3.08.99,4.65,0,3.54-1.6,7.19-4.33,10.84,1.4,3.09,2.18,6.02,2.18,8.73s-.72,5.01-2.31,7.15c-.09.11-.13.25-.13.39s.05.28.14.4c.16.21.42.29.66.23,3.9-3.85,6.58-8.47,7.71-13.43.34-1.63.5-3.28.5-4.93"/></g><g class="cls-9"><path class="cls-3" d="m46.35,7.78c-.03-.08-.08-.16-.15-.23-4.05-3.87-8.58-6.16-13.23-7.06,4.94,1.01,9.53,3.54,13.38,7.29m-16.36.79c-5.03-3.84-10.1-5.39-14.97-3.39-.27.11-.58.03-.76-.2h0c-.09-.13-.14-.27-.14-.4,0-.12.04-.25.11-.35-1.24.76-2.44,1.62-3.6,2.57C3.94,12.26,0,19.8,0,27.78,0,32.45,1.35,37.26,4.29,41.91c.21.33.66.4.96.15h0c.15-.13.23-.31.23-.5,0-.09-.02-.18-.05-.26-.67-1.52-.98-3.08-.98-4.65,0-6.65,5.63-13.65,13.85-20.39,4.03-3.3,7.97-5.97,11.7-7.7"/></g><g class="cls-8"><path class="cls-6" d="m46.4,8.01c0-.08-.01-.16-.04-.24-3.85-3.75-8.44-6.28-13.38-7.29-6.36-1.23-12.93.17-18.74,3.73-.07.11-.11.23-.11.35,0,.14.04.28.14.4h0c.18.24.49.32.76.21,4.87-2,9.94-.45,14.97,3.39,5.78-2.67,11.06-3.07,15.38-.02.24.17.56.16.78-.03h0c.16-.13.24-.32.24-.5"/></g><g class="cls-11"><path class="cls-5" d="m15.97,37.2C7.8,26.72,3.73,16.92,8.91,9.93c.17-.23.17-.55,0-.78h0c-.24-.31-.69-.34-.97-.06-10.55,10.52-10.05,24.74-1.63,35.54,8.42,10.8,22.18,14.85,34.96,7.19.33-.2.42-.65.18-.95h0c-.18-.23-.49-.31-.75-.2-8.05,3.31-16.63-3.1-24.72-13.47"/></g></g></g></svg>