<?xml version="1.0" encoding="UTF-8"?><svg id="Calque_2" xmlns="http://www.w3.org/2000/svg" xmlns:xlink="http://www.w3.org/1999/xlink" viewBox="0 0 148.42 44.14"><defs><style>.cls-1{fill:none;}.cls-2{clip-path:url(#clippath);}.cls-3{fill:#e4e4e5;}</style><clipPath id="clippath"><rect class="cls-1" y="0" width="148.42" height="44.14"/></clipPath></defs><g id="Calque_1-2"><g class="cls-2"><path class="cls-3" d="m65.72,32.8c-.74.34-1.55.64-2.52.64s-1.57-.63-1.57-1.6c0-1.23,1.2-1.9,2.65-2.12l1.43-.25v3.33Zm3.28.93l-.16-4.54v-2.93c0-3.11-2.66-3.52-4.55-3.52s-3.97,1.02-4.92,1.68l.35.89c1.2-.32,2.33-.48,3.16-.48,1.89,0,2.84.59,2.84,2.13v1.48l-2.04.23c-2.49.3-5.22,1.07-5.22,4.05,0,1.59,1.2,2.89,3.14,2.89s3.33-1.14,4.16-2.14c.09,1.32.53,2.11,2.22,2.11.9,0,2.31-.59,3.03-1.25l-.09-.61h-1.92Zm58.84-8.27c0-.89.69-1.45,1.94-1.45,2.27,0,2.77,1.23,3.09,2.61l.76.07.39-3.02c-1.36-.68-2.53-.95-4.02-.95-2.58,0-4.87,1.52-4.87,3.88,0,4.25,6.52,3.95,6.52,6.06,0,1.04-.88,1.63-2.16,1.63-1.79,0-2.97-1.23-3.27-3l-.9-.02-.21,3.36c1.38.61,2.7.97,4.33.97,2.38,0,5.27-1.11,5.27-4.09,0-3.93-6.89-3.63-6.89-6.07m-8.16-5.41c1.03,0,1.86-.82,1.86-1.83s-.83-1.83-1.86-1.83-1.86.82-1.86,1.83.84,1.83,1.86,1.83m20.35,7.88c.07-2.68,1.18-3.91,2.66-3.91,1.71,0,2.36,1.61,2.36,3.91h-5.01Zm8.39.68c0-3.23-1.57-5.93-5.2-5.93-3.84,0-6.45,3.29-6.45,6.88s2.29,6.05,6.48,6.05c2.15,0,4.02-.88,5.01-2.04l-.35-.77c-1.39.32-2.66.47-3.51.47-2.42,0-4.13-1.01-4.34-4.1h8.36v-.54Zm-27.08,4.77l-.05-4.18v-5.45c0-.8-.37-1-1.09-1-1.11,0-2.93.23-4.18.5v1.04h2.12v4.91l-.07,4.02c0,.5-.21.89-.62,1.02l-1.41.43c0,.29.05.43.09.73h7.16c.12-.29.14-.57.14-.79l-1.71-.41c-.25-.07-.39-.23-.39-.82m-12.78.77c-2.49,0-3.14-2.5-3.14-5.18,0-2.45.62-4.84,2.79-4.84,2.45,0,2.98,2.41,2.98,5.27,0,2.36-.41,4.75-2.64,4.75m-.16-11.43c-3.54,0-6.33,3.36-6.33,6.68,0,4.32,2.31,6.2,6.12,6.2s6.4-3.36,6.4-6.65c0-4.25-2.08-6.22-6.19-6.22m-12.37,6.31l-.07,3.84c-.58.18-1.29.48-2.13.48-1.75,0-2.98-1.29-2.98-4.15,0-3.34.88-4.95,3.26-4.95.9,0,1.43.21,1.92.36v4.43Zm3.24,4.68l-.09-4.66v-12.15c0-.91-.33-1.14-1.2-1.14-1.09,0-2.82.23-4.07.48v1.07h2.13v5.7c-.56-.09-1.11-.16-1.99-.16-3.63,0-6.52,2.63-6.52,6.81,0,4.77,2.5,5.93,4.99,5.93,1.57,0,2.7-.89,3.49-1.75,0,.84.3,1.75,1.48,1.75,1.71,0,2.87-.57,3.86-1.11l-.16-.77h-1.92Zm-14.87,0l-.12-4.5v-5.2c0-.89-.58-1.27-1.48-1.27-1.11,0-2.45.29-3.58.61v.91h1.92v4.93l-.07,3.41c-.72.32-1.66.75-3.01.75-1.54,0-1.75-1.1-1.78-2.42v-6.94c0-.86-.51-1.25-1.45-1.25-1.09,0-2.4.27-3.67.61v.91h1.96v7.13c0,2.13.25,4.2,3.67,4.2,1.8,0,3.12-1,4.3-2.13.02,1.32.67,2.09,1.89,2.09,1.52,0,2.63-.7,3.46-1.2l-.07-.63h-1.99Zm-30.4-9.95l1.05.34c.3.11.48.34.48.73,0,.2-.05.43-.14.7l-2.98,7.45-3.24-9.99h-4.55c-.09.27-.04.67.02.89,1.08.37,1.44.28,1.82,1.27l3.91,10.86,2.31-.66,4.02-9.45c.42-1.04.85-1.91,1.25-2.34.03-.09.03-.48.03-.57h-3.96c-.07.27-.07.48-.03.77m-20.39,4.42c-1.44,2.11-3.27,3.1-4.83,3.09-.1,0-.2,0-.3-.01-3.83-.3-6.64-5.32-7.73-7.28.72-1.73,1.94-4.55,3.61-7.04,1.69-2.52,3.85-4.68,6.39-5.06.22-.03.43-.05.64-.05,1.48,0,2.65.81,3.46,2.04.81,1.23,1.25,2.87,1.25,4.49,0,4.47-1.05,7.7-2.49,9.82m-17.21,2.48c-.67,1.29-2.35,3.93-4.95,4.48-.3.07-.63.1-.97.1-2.33,0-5.23-1.6-5.85-4.89-.08-.41-.12-.83-.12-1.25,0-2.38,1.23-4.84,4.12-5.74.47-.15.93-.22,1.38-.22,2.75-.01,5.19,2.68,6.69,6.87-.04.1-.15.33-.31.65M36.86,1.39C36.25.49,35.44,0,34.52,0c-1.41,0-3.01,1.1-4.72,3.37-2.88,3.84-6.06,11.11-9.68,19.57-1.43-2.43-4.78-5.96-9.55-5.97-1.18,0-2.44.22-3.77.72C1.71,19.6,0,24.23,0,27.35,0,32.65,4.08,37.04,8.99,37.14c.05,0,.1,0,.16,0,2.92,0,4.99-1.57,6.31-3.12.95-1.12,1.53-2.24,1.78-2.78,1.98,4.73,4.08,8.57,5.55,10.38,1.32,1.63,2.74,2.52,4.15,2.52h0c1.33,0,2.59-.81,3.66-2.45,2.91-4.43,4.92-11.12,6.38-17.54.86-3.8,1.44-9.12,1.44-13.79,0-1.85-.09-3.59-.29-5.1-.22-1.67-.65-2.97-1.26-3.87"/></g></g></svg>