<?xml version="1.0" encoding="UTF-8"?><svg id="Calque_2" xmlns="http://www.w3.org/2000/svg" viewBox="0 0 127.09 30.04"><defs><style>.cls-1{fill:#e4e4e5;}</style></defs><g id="Calque_1-2"><g><path class="cls-1" d="m89.2,29.67h0s0,0,0,0h0Zm5.82-15.72h.24s.23.03.23.03l.22.05.2.06.2.08.18.09.18.11.16.12.16.13.14.14.14.15.13.17.12.18.11.18.1.19.1.2.09.21.08.21.07.22.06.21.06.23.06.22.04.23.05.23.03.24.03.23.03.23.02.23v.22s.02.23.02.23v.44s0,.38,0,.38l-.02.4-.02.21-.03.21-.03.21-.03.22-.05.21-.04.22-.06.21-.06.21-.06.22-.07.21-.08.21-.09.21-.1.19-.1.19-.11.18-.12.16-.13.17-.14.16-.14.14-.16.13-.16.12-.18.11-.18.09-.2.08-.2.06-.22.04-.23.03h-.24s0-10.65,0-10.65Zm-1.17-5.18l-.86.03-.86.04-.82.05-.72.05-.58.04-.38.03h-.14s0,20.66,0,20.66h5.49s.36-.03.36-.03l.37-.03.37-.03.38-.06.39-.06.4-.08.4-.09.4-.12.4-.13.4-.16.39-.18.39-.21.38-.23.36-.25.37-.28.35-.32.33-.34.32-.37.31-.41.29-.44.26-.48.24-.52.22-.56.2-.6.17-.65.14-.68.11-.74.09-.79.05-.82.02-.88v-.59s-.03-.58-.03-.58l-.04-.56-.06-.55-.07-.53-.09-.52-.1-.5-.12-.48-.14-.47-.16-.45-.18-.44-.19-.42-.21-.41-.23-.38-.25-.37-.26-.35-.29-.33-.31-.31-.32-.3-.35-.27-.37-.25-.38-.23-.41-.21-.43-.19-.45-.17-.47-.14-.49-.12-.52-.1-.53-.08-.56-.06-.58-.02h-.6s-.82,0-.82,0Zm-55.25-.04v6.28l.02,1v.99s.04.93.04.93l.02.82.02.65v.44s.01.15.01.15l-4.06-11.26h-5.34v20.94h5.39v-6.14l-.07-5.06,3.96,11.2h5.25V8.73h-5.25Zm79.92,8.94l.08-.48.07-.49.07-.5.06-.49.06-.49.06-.5.06-.49.06-.49h.06l.05.49.05.49.05.5.06.49.05.49.05.5.06.49.06.48.61,4.86h-2.39l.78-4.86Zm-2.81-8.94l-5.03,20.94h5.84l.48-2.69h3.81l.42,2.69h5.86l-4.45-20.94h-6.92Zm-36.04,9.67v-5.17h.14s.14,0,.14,0h.14s.14.02.14.02l.13.02h.14s.14.05.14.05l.13.03.13.03.13.04.12.05.12.05.11.06.11.06.1.07.1.07.1.08.09.09.09.1.08.1.08.1.07.11.06.11.06.12.06.13.05.14.04.14.03.14.02.15.02.15v.17s.02.17.02.17v.13s-.02.13-.02.13l-.02.13v.13s-.05.12-.05.12l-.03.13-.03.12-.04.12-.05.12-.05.11-.06.11-.06.11-.07.1-.08.1-.07.1-.08.1-.09.1-.09.09-.1.08-.09.08-.1.07-.1.07-.11.06-.11.06-.12.05-.12.05-.13.04-.13.03-.13.02h-.14s-.13.03-.13.03h-.14l-.36-.02Zm-5.55-9.67v20.94h5.55v-5.96s-.01-.39-.01-.39v-.39s-.02-.38-.02-.38v-.39s-.03-.38-.03-.38v-.39s-.03-.38-.03-.38l.06-.06,3.26,8.72h6.28l-4.49-8.72.21-.09.21-.1.19-.1.19-.1.18-.11.18-.12.17-.13.17-.13.16-.13.15-.14.14-.14.14-.15.13-.16.13-.16.12-.17.12-.17.1-.17.1-.18.09-.18.09-.18.08-.19.07-.19.07-.2.06-.2.06-.2.04-.21.04-.2.03-.21.03-.21.02-.21v-.21s0-.22,0-.22v-.51s-.04-.48-.04-.48l-.06-.45-.07-.44-.1-.41-.12-.4-.13-.37-.15-.35-.17-.33-.19-.31-.21-.29-.21-.28-.25-.26-.25-.24-.27-.22-.28-.21-.3-.19-.31-.17-.33-.16-.33-.14-.36-.13-.36-.12-.37-.1-.38-.09-.4-.08-.41-.06-.41-.06-.43-.04-.44-.03-.44-.02-.45-.02h-5.81Zm30.74,20.94h5.58V8.73h-.05l-.14.09-.15.09-.16.1-.16.08-.17.08-.16.07-.17.06-.17.06-.18.06-.17.05-.18.04-.18.03-.18.02-.19.02-.19.02h-.38l-.19-.02-.19-.02-.19-.02-.18-.04-.18-.04-.18-.05-.18-.06-.17-.06-.17-.07-.17-.07-.17-.08-.16-.09-.16-.09-.15-.1-.15-.1v20.96ZM9.2,8.37h-.27s-.28.02-.28.02l-.3.02-.33.04-.33.06-.35.06-.37.09-.36.1-.37.12-.38.14-.38.17-.38.18-.39.2-.38.23-.37.25-.37.28-.36.31-.36.33-.34.36-.33.4-.31.43-.29.47-.28.49-.25.53-.23.57-.21.61-.18.64-.15.69-.13.72-.09.77-.06.82-.02.86v.66s.05.64.05.64l.06.62.07.6.1.57.12.55.14.54.16.51.18.49.19.47.21.45.23.43.25.4.25.39.27.36.29.34.29.32.32.3.33.28.33.26.35.24.36.22.37.2.38.17.39.16.4.14.4.11.41.1.42.07.42.06.43.03h.43s.24,0,.24,0h.24s.24-.03.24-.03l.25-.03.24-.04.24-.05.24-.06.24-.06.23-.07.23-.08.23-.09.21-.09.22-.1.21-.11.2-.11.19-.13-.11-5.41-.15.17-.14.15-.15.14-.14.13-.15.11-.15.1-.16.09-.16.07-.17.06-.17.06-.18.04-.19.03-.2.02h-.21s-.22.02-.22.02h-.49s-.25-.03-.25-.03l-.24-.05-.23-.06-.22-.08-.21-.09-.19-.1-.19-.12-.17-.13-.17-.14-.16-.15-.15-.17-.14-.18-.14-.18-.12-.19-.11-.2-.11-.21-.1-.21-.1-.22-.08-.22-.07-.23-.07-.23-.06-.24-.06-.24-.05-.24-.04-.24-.03-.24-.02-.24-.02-.24-.02-.24v-.24s0-.45,0-.45v-.22s.02-.22.02-.22l.02-.23.02-.24.03-.23.04-.24.05-.24.06-.23.06-.24.06-.23.08-.23.08-.22.1-.22.1-.21.1-.21.12-.2.13-.2.14-.19.14-.18.15-.17.17-.16.17-.14.18-.14.19-.13.21-.1.22-.09.22-.08.24-.06.25-.04.26-.03h.27s.22,0,.22,0l.2.02.19.02.18.03.18.05.17.06.16.06.16.07.15.09.15.09.15.1.14.11.14.12.15.12.14.14.15.14.14-5.95-.17-.06-.17-.06-.18-.06-.18-.06-.19-.05-.19-.05-.19-.04-.19-.04-.2-.03-.19-.02-.2-.02-.19-.03h-.2s-.19-.02-.19-.02h-.19s-.19,0-.19,0Zm10.94,16.38l-.18-.04-.17-.06-.17-.08-.16-.1-.14-.12-.14-.13-.13-.15-.12-.17-.11-.17-.1-.19-.1-.2-.09-.21-.08-.21-.08-.22-.06-.23-.06-.23-.06-.24-.05-.23-.05-.24-.04-.24-.03-.23-.03-.22-.03-.22-.04-.42-.02-.39-.02-.33v-.28h0v-.28l.02-.33.02-.39.04-.42.03-.22.03-.22.03-.23.04-.24.05-.23.05-.24.06-.23.06-.24.06-.22.08-.22.08-.22.09-.21.1-.2.1-.19.11-.17.12-.17.13-.14.14-.13.14-.12.16-.1.17-.08.17-.06.18-.03.2-.02.19.02.19.03.17.06.16.08.16.1.15.12.13.13.13.14.12.17.11.17.11.19.09.2.09.21.09.22.07.22.07.22.06.24.06.23.05.24.05.23.08.47.06.44.04.42.02.39.02.33v.28s0,.28,0,.28l-.02.33-.02.39-.04.42-.02.22-.03.22-.04.23-.04.24-.05.24-.05.23-.06.24-.06.23-.07.23-.07.22-.09.21-.09.21-.09.2-.11.19-.11.17-.12.17-.13.15-.14.13-.15.12-.16.1-.16.08-.17.06-.19.04h-.19s-.2,0-.2,0Zm-.33-16.37l-.51.05-.49.08-.47.11-.45.14-.43.17-.41.19-.39.22-.37.24-.36.27-.33.29-.33.31-.3.33-.28.34-.27.36-.25.38-.23.4-.21.41-.2.43-.18.43-.17.44-.15.45-.14.46-.13.47-.1.48-.09.48-.08.48-.06.48-.05.49-.03.49-.02.48v.48s0,.48,0,.48l.02.48.03.49.05.49.06.48.08.48.09.48.1.48.13.47.13.46.15.45.17.44.18.44.2.42.21.41.23.4.25.38.27.37.28.35.3.33.33.31.33.28.36.27.37.24.39.22.41.19.43.17.45.14.47.11.49.08.51.05h.53s.52,0,.52,0l.51-.05.49-.08.47-.11.45-.14.43-.17.4-.19.4-.22.37-.24.35-.27.34-.28.32-.31.3-.33.28-.35.27-.37.24-.38.24-.4.21-.41.2-.42.18-.44.17-.44.15-.45.13-.46.12-.47.1-.48.1-.48.07-.48.06-.48.05-.49.03-.49.02-.48v-.48s0-.48,0-.48l-.02-.48-.03-.49-.05-.49-.06-.48-.07-.48-.1-.48-.1-.48-.12-.47-.13-.46-.15-.45-.17-.44-.18-.43-.2-.43-.21-.41-.24-.4-.24-.38-.27-.36-.28-.34-.3-.33-.32-.31-.34-.29-.35-.27-.37-.24-.4-.22-.4-.19-.43-.17-.45-.14-.47-.11-.49-.08-.51-.05-.52-.02-.53.02Zm34.23-.02h-.27s-.29.02-.29.02l-.3.02-.33.04-.33.06-.35.06-.36.09-.38.1-.37.12-.38.14-.38.17-.38.18-.39.2-.38.23-.37.25-.37.28-.36.31-.36.33-.34.36-.33.4-.31.43-.3.47-.28.49-.25.53-.23.57-.21.61-.18.64-.15.69-.13.72-.09.77-.05.82-.02.86.02.66.03.64.06.62.08.6.1.57.12.55.14.54.16.51.18.49.19.47.22.45.22.43.25.4.25.39.27.36.29.34.29.32.32.3.32.28.33.26.35.24.36.22.37.2.38.17.39.16.4.14.4.11.41.1.42.07.42.06.43.03h.44s.23,0,.23,0h.24s.24-.03.24-.03l.25-.03.24-.04.24-.05.24-.06.24-.06.23-.07.23-.08.23-.09.22-.09.22-.1.21-.11.2-.11.2-.13-.12-5.41-.15.17-.14.15-.14.14-.15.13-.15.11-.15.1-.15.09-.16.07-.17.06-.17.06-.18.04-.19.03-.2.02h-.21s-.22.02-.22.02h-.49s-.25-.03-.25-.03l-.24-.05-.23-.06-.22-.08-.2-.09-.2-.1-.19-.12-.17-.13-.17-.14-.16-.15-.15-.17-.14-.18-.13-.18-.13-.19-.11-.2-.11-.21-.1-.21-.09-.22-.09-.22-.07-.23-.07-.23-.06-.24-.06-.24-.05-.24-.04-.24-.03-.24-.02-.24-.02-.24v-.24s-.02-.24-.02-.24v-.23s0-.22,0-.22v-.22s.02-.22.02-.22l.02-.23.02-.24.04-.23.04-.24.04-.24.06-.23.06-.24.06-.23.08-.23.09-.22.09-.22.1-.21.1-.21.12-.2.13-.2.14-.19.14-.18.16-.17.16-.16.17-.14.18-.14.19-.13.21-.1.21-.09.22-.08.24-.06.25-.04.26-.03h.27s.22,0,.22,0l.2.02.2.02.18.03.18.05.17.06.16.06.16.07.16.09.14.09.15.1.14.11.15.12.14.12.15.14.14.14.14-5.95-.17-.06-.18-.06-.18-.06-.18-.06-.19-.05-.19-.05-.19-.04-.19-.04-.2-.03-.19-.02-.2-.02-.19-.03h-.19s-.2-.02-.2-.02h-.19s-.18,0-.18,0Zm10.9,16.38l-.18-.04-.18-.06-.17-.08-.15-.1-.15-.12-.13-.13-.13-.15-.13-.17-.11-.17-.1-.19-.1-.2-.09-.21-.09-.21-.07-.22-.07-.23-.06-.23-.06-.24-.06-.23-.04-.24-.04-.24-.04-.23-.03-.22-.02-.22-.04-.42-.03-.39v-.33s-.01-.28-.01-.28v-.28s.02-.33.02-.33l.03-.39.04-.42.02-.22.03-.22.04-.23.04-.24.04-.23.06-.24.06-.23.06-.24.07-.22.07-.22.09-.22.09-.21.1-.2.1-.19.11-.17.13-.17.13-.14.13-.13.15-.12.15-.1.17-.08.18-.06.18-.03.2-.02.2.02.18.03.18.06.17.08.15.1.15.12.14.13.14.14.12.17.11.17.1.19.1.2.09.21.08.22.07.22.07.22.06.24.06.23.06.24.05.23.07.47.06.44.05.42.02.39.02.33v.56l-.02.33-.02.39-.05.42-.02.22-.03.22-.03.23-.04.24-.05.24-.06.23-.06.24-.06.23-.07.23-.07.22-.08.21-.1.21-.1.2-.1.19-.11.17-.12.17-.14.15-.14.13-.15.12-.15.1-.17.08-.17.06-.18.04h-.2s-.2,0-.2,0Zm-.33-16.37l-.51.05-.49.08-.47.11-.45.14-.43.17-.41.19-.39.22-.37.24-.36.27-.33.29-.32.31-.3.33-.29.34-.26.36-.25.38-.24.4-.22.41-.2.43-.18.43-.17.44-.15.45-.13.46-.12.47-.11.48-.09.48-.07.48-.06.48-.05.49-.03.49-.02.48v.48s0,.48,0,.48l.02.48.03.49.05.49.06.48.07.48.09.48.11.48.12.47.13.46.15.45.17.44.18.44.2.42.22.41.24.4.25.38.26.37.29.35.3.33.32.31.33.28.36.27.37.24.39.22.41.19.43.17.45.14.47.11.49.08.51.05h.53s.53,0,.53,0l.51-.05.49-.08.47-.11.45-.14.43-.17.41-.19.39-.22.37-.24.36-.27.33-.28.32-.31.3-.33.29-.35.26-.37.25-.38.23-.4.21-.41.2-.42.18-.44.17-.44.15-.45.14-.46.12-.47.11-.48.09-.48.08-.48.06-.48.05-.49.04-.49v-.48s.02-.48.02-.48v-.48s-.02-.48-.02-.48l-.04-.49-.05-.49-.06-.48-.08-.48-.09-.48-.11-.48-.12-.47-.14-.46-.15-.45-.17-.44-.18-.43-.2-.43-.21-.41-.23-.4-.25-.38-.26-.36-.29-.34-.3-.33-.32-.31-.33-.29-.36-.27-.37-.24-.39-.22-.41-.19-.43-.17-.45-.14-.47-.11-.49-.08-.51-.05-.53-.02-.53.02Z"/><polygon class="cls-1" points="107.66 0 107.47 0 107.28 .01 107.08 .05 106.9 .08 106.72 .12 106.54 .17 106.36 .23 106.2 .29 106.03 .37 105.86 .46 105.7 .55 105.55 .64 105.4 .75 105.26 .86 105.12 .98 104.99 1.1 104.87 1.24 104.75 1.37 104.63 1.52 104.53 1.67 104.43 1.82 104.34 1.98 104.26 2.14 104.18 2.31 104.11 2.48 104.05 2.65 104 2.83 103.96 3.02 103.92 3.21 103.9 3.39 103.89 3.58 103.88 3.78 103.89 3.97 103.9 4.17 103.92 4.35 103.96 4.54 104 4.72 104.05 4.91 104.11 5.08 104.18 5.25 104.26 5.41 104.34 5.58 104.43 5.74 104.53 5.89 104.63 6.04 104.75 6.18 104.87 6.32 104.99 6.45 105.12 6.57 105.26 6.69 105.4 6.8 105.55 6.91 105.7 7.01 105.86 7.1 106.03 7.18 106.2 7.26 106.36 7.33 106.54 7.39 106.72 7.44 106.9 7.48 107.08 7.51 107.28 7.53 107.47 7.55 107.66 7.56 107.86 7.55 108.06 7.53 108.24 7.51 108.43 7.48 108.61 7.44 108.78 7.39 108.96 7.33 109.13 7.26 109.3 7.18 109.47 7.1 109.63 7.01 109.78 6.91 109.93 6.8 110.07 6.69 110.21 6.57 110.33 6.45 110.46 6.32 110.58 6.18 110.69 6.04 110.79 5.89 110.9 5.74 110.98 5.58 111.07 5.41 111.14 5.25 111.22 5.08 111.27 4.91 111.33 4.72 111.37 4.54 111.4 4.35 111.42 4.17 111.44 3.97 111.45 3.78 111.44 3.58 111.42 3.39 111.4 3.21 111.37 3.02 111.33 2.83 111.27 2.65 111.22 2.48 111.14 2.31 111.07 2.14 110.98 1.98 110.9 1.82 110.79 1.67 110.69 1.52 110.58 1.37 110.46 1.24 110.33 1.1 110.21 .98 110.07 .86 109.93 .75 109.78 .64 109.63 .55 109.47 .46 109.3 .37 109.13 .29 108.96 .23 108.78 .17 108.61 .12 108.43 .08 108.24 .05 108.06 .01 107.86 0 107.66 0"/></g></g></svg>