<?xml version="1.0" encoding="UTF-8"?><svg id="Calque_2" xmlns="http://www.w3.org/2000/svg" xmlns:xlink="http://www.w3.org/1999/xlink" viewBox="0 0 20.8 20.6"><defs><style>.cls-1{fill:none;}.cls-2{clip-path:url(#clippath);}.cls-3{fill:#0073b0;}.cls-4{fill:#fff;}.cls-5{clip-path:url(#clippath-1);}.cls-6{clip-path:url(#clippath-3);}.cls-7{clip-path:url(#clippath-2);}</style><clipPath id="clippath"><rect class="cls-1" x="0" y="0" width="20.8" height="20.6"/></clipPath><clipPath id="clippath-1"><rect class="cls-1" x="0" y="0" width="20.8" height="20.6"/></clipPath><clipPath id="clippath-2"><rect class="cls-1" x="0" y="0" width="20.8" height="20.6"/></clipPath><clipPath id="clippath-3"><rect class="cls-1" x="0" y="0" width="20.8" height="20.6"/></clipPath></defs><g id="Calque_1-2"><g><g class="cls-2"><path class="cls-3" d="m20.8,10.3c0,5.69-4.66,10.3-10.4,10.3S0,15.99,0,10.3,4.66,0,10.4,0s10.4,4.61,10.4,10.3"/></g><g class="cls-5"><path class="cls-4" d="m11.07,9.33c.05-.06.07-.07.09-.09.7-1.01,1.7-1.31,2.86-1.13,1.35.2,2.21,1.14,2.43,2.57.05.34.08.68.08,1.02,0,1.42,0,2.84,0,4.26,0,.16-.04.21-.2.2-.75,0-1.51,0-2.26,0-.16,0-.21-.04-.21-.2,0-1.33,0-2.65,0-3.98,0-.3-.02-.6-.11-.89-.27-.94-1.35-1.26-2.12-.64-.41.34-.58.78-.57,1.3,0,1.25,0,2.5,0,3.75,0,.16-.01.33,0,.49.01.14-.05.17-.18.17-.77,0-1.53,0-2.3,0-.14,0-.19-.03-.19-.18.01-1.13.02-2.26.02-3.38,0-1.39,0-2.78-.01-4.16,0-.15.03-.2.19-.19.77,0,1.53,0,2.3,0,.14,0,.18.04.17.17-.01.29,0,.57,0,.91"/></g><g class="cls-7"><path class="cls-4" d="m6.96,12.21c0,1.25,0,2.5,0,3.75,0,.16-.03.21-.2.21-.76-.01-1.52,0-2.28,0-.14,0-.19-.03-.19-.18,0-2.52,0-5.04,0-7.56,0-.13.03-.18.17-.17.77,0,1.55,0,2.32,0,.15,0,.18.05.18.19,0,1.26,0,2.52,0,3.77"/></g><g class="cls-6"><path class="cls-4" d="m5.65,4.44c1.02,0,1.68.8,1.44,1.74-.18.71-.92,1.11-1.77.98-.91-.15-1.41-1.02-1.08-1.87.21-.53.74-.85,1.41-.85"/></g></g></g></svg>