<?xml version="1.0" encoding="UTF-8"?><svg id="Calque_2" xmlns="http://www.w3.org/2000/svg" xmlns:xlink="http://www.w3.org/1999/xlink" viewBox="0 0 55.79 55.77"><defs><style>.cls-1{fill:none;}.cls-2{clip-path:url(#clippath);}.cls-3{fill:#ffe8e8;}.cls-4{fill:#ffbfbf;}.cls-5{fill:#ffb2b2;}.cls-6{fill:#ff7d7d;}.cls-7{clip-path:url(#clippath-1);}.cls-8{clip-path:url(#clippath-4);}.cls-9{clip-path:url(#clippath-3);}.cls-10{clip-path:url(#clippath-2);}.cls-11{clip-path:url(#clippath-5);}</style><clipPath id="clippath"><rect class="cls-1" x="0" width="55.78" height="55.77"/></clipPath><clipPath id="clippath-1"><rect class="cls-1" x="0" width="55.78" height="55.77"/></clipPath><clipPath id="clippath-2"><rect class="cls-1" x="0" width="55.78" height="55.77"/></clipPath><clipPath id="clippath-3"><rect class="cls-1" x="0" width="55.78" height="55.77"/></clipPath><clipPath id="clippath-4"><rect class="cls-1" x="0" width="55.78" height="55.77"/></clipPath><clipPath id="clippath-5"><rect class="cls-1" x="0" width="55.78" height="55.77"/></clipPath></defs><g id="Calque_1-2"><g><g class="cls-2"><path class="cls-4" d="m8.31,8.85c-.11.03-.22.08-.31.17C3.98,13.03,1.58,17.59.6,22.28c1.13-4.96,3.81-9.58,7.71-13.43m.53,16.9c-3.95,5.27-5.53,10.53-3.35,15.49.12.27.04.58-.18.76h0c-.12.1-.27.15-.41.15-.09,0-.18-.02-.26-.05.56.88,1.17,1.75,1.83,2.59.93,1.19,1.92,2.29,2.96,3.31-.1-.25-.03-.55.19-.74h0c.12-.1.26-.15.41-.15.13,0,.26.04.37.12,2.08,1.47,4.39,2.14,6.86,2.14,2.66,0,5.52-.77,8.52-2.16-3.29-2.51-6.56-5.99-9.76-10.08-3.06-3.93-5.55-7.76-7.19-11.38m32.71,25.81c-4.42,2.71-9.28,4.17-14.16,4.17-1.53,0-3.07-.14-4.59-.44,1.57.32,3.17.48,4.8.48,4.5,0,9.17-1.26,13.73-4.01.09-.05.16-.12.21-.2"/></g><g class="cls-7"><path class="cls-3" d="m28.49.02C22.19.02,15.92,2.44,10.57,6.82c-.79.65-1.55,1.33-2.26,2.03.05-.01.1-.02.15-.02.19,0,.38.08.51.25.18.23.18.55,0,.78-3.24,4.37-2.87,9.84-.13,15.89,2.4-3.2,5.68-6.41,9.52-9.56,7.27-5.96,14.24-9.85,20.22-9.85,2.48,0,4.78.67,6.87,2.14.11.08.24.12.37.12.15,0,.29-.05.41-.15.3-.25.32-.7.04-.97C40.9,2.36,34.69.02,28.49.02M.6,22.28c-1.42,6.26-.39,13.06,3.75,19.57.07.11.17.2.29.25C.74,35.97-.78,28.98.6,22.28"/></g><g class="cls-10"><path class="cls-5" d="m8.46,8.83s-.1,0-.15.02c-3.9,3.85-6.58,8.47-7.71,13.43-1.39,6.7.14,13.69,4.04,19.82.08.03.17.05.26.05.14,0,.29-.05.41-.15h0c.22-.19.3-.5.18-.76-2.18-4.96-.6-10.22,3.35-15.49-2.73-6.05-3.11-11.52.13-15.89.17-.23.17-.55,0-.78-.13-.17-.32-.25-.51-.25"/></g><g class="cls-9"><path class="cls-3" d="m50.95,13.56c-.14,0-.29.05-.41.15h0c-.22.19-.3.5-.18.76,3.5,7.97-2.7,16.7-12.87,25.04-4.03,3.3-7.97,5.97-11.7,7.7,3.54,2.7,7.09,4.26,10.58,4.26,1.48,0,2.94-.28,4.39-.88.08-.03.16-.05.25-.05.19,0,.38.09.51.25h0c.18.23.18.54.03.76,1.24-.76,2.44-1.62,3.6-2.57,10.59-8.68,14.3-22.54,6.34-35.13-.12-.2-.33-.3-.55-.3M9.43,48c.03.09.09.16.16.23,4.05,3.87,8.58,6.16,13.22,7.06-4.94-1.01-9.53-3.55-13.38-7.29"/></g><g class="cls-8"><path class="cls-5" d="m10.03,47.11c-.15,0-.29.05-.41.15h0c-.23.19-.29.49-.19.74,3.85,3.75,8.44,6.28,13.38,7.29,1.52.29,3.06.44,4.59.44,4.87,0,9.73-1.45,14.16-4.16.15-.22.14-.53-.03-.75h0c-.12-.17-.31-.26-.51-.26-.08,0-.17.02-.25.05-1.45.6-2.92.88-4.39.88-3.49,0-7.04-1.57-10.58-4.27-3,1.38-5.86,2.16-8.52,2.16-2.48,0-4.78-.67-6.86-2.14-.11-.08-.24-.12-.37-.12"/></g><g class="cls-11"><path class="cls-6" d="m39.81,18.58c8.17,10.48,12.24,20.28,7.06,27.26-.17.23-.17.55,0,.78h0c.24.31.69.34.97.06,10.55-10.52,10.05-24.74,1.63-35.54C41.05.34,27.29-3.7,14.51,3.95c-.33.2-.42.65-.18.95h0c.18.23.49.31.75.2,8.05-3.31,16.63,3.1,24.72,13.47"/></g></g></g></svg>