<?xml version="1.0" encoding="UTF-8"?><svg id="Calque_2" xmlns="http://www.w3.org/2000/svg" xmlns:xlink="http://www.w3.org/1999/xlink" viewBox="0 0 116.96 115.76"><defs><style>.cls-1{fill:none;}.cls-2{clip-path:url(#clippath);}.cls-3{fill:#f6e5d1;}.cls-4{fill:#f9f7f2;}.cls-5{fill:#f2dabd;}.cls-6{fill:#fcf6ee;}.cls-7{clip-path:url(#clippath-1);}.cls-8{clip-path:url(#clippath-4);}.cls-9{clip-path:url(#clippath-3);}.cls-10{clip-path:url(#clippath-2);}.cls-11{clip-path:url(#clippath-7);}.cls-12{clip-path:url(#clippath-8);}.cls-13{clip-path:url(#clippath-6);}.cls-14{clip-path:url(#clippath-5);}.cls-15{clip-path:url(#clippath-9);}.cls-16{clip-path:url(#clippath-13);}.cls-17{clip-path:url(#clippath-12);}.cls-18{clip-path:url(#clippath-10);}.cls-19{clip-path:url(#clippath-11);}.cls-20{opacity:.25;}.cls-21{opacity:.5;}</style><clipPath id="clippath"><rect class="cls-1" y="7" width="107.96" height="108.76"/></clipPath><clipPath id="clippath-1"><rect class="cls-1" y="7" width="107.96" height="108.76"/></clipPath><clipPath id="clippath-2"><rect class="cls-1" x="1.97" y="6.85" width="65.16" height="51.48"/></clipPath><clipPath id="clippath-3"><rect class="cls-1" y="7" width="107.96" height="108.76"/></clipPath><clipPath id="clippath-4"><rect class="cls-1" y="7" width="107.96" height="108.76"/></clipPath><clipPath id="clippath-5"><rect class="cls-1" x="20.78" width="92.06" height="66.58"/></clipPath><clipPath id="clippath-6"><rect class="cls-1" y="7" width="107.96" height="108.76"/></clipPath><clipPath id="clippath-7"><rect class="cls-1" y="7" width="107.96" height="108.76"/></clipPath><clipPath id="clippath-8"><rect class="cls-1" y="7" width="107.96" height="108.76"/></clipPath><clipPath id="clippath-9"><rect class="cls-1" x="40.81" y="35.72" width="76.16" height="76.65"/></clipPath><clipPath id="clippath-10"><rect class="cls-1" y="7" width="107.96" height="108.76"/></clipPath><clipPath id="clippath-11"><rect class="cls-1" y="7" width="107.96" height="108.76"/></clipPath><clipPath id="clippath-12"><rect class="cls-1" y="7" width="107.96" height="108.76"/></clipPath><clipPath id="clippath-13"><rect class="cls-1" y="7" width="107.96" height="108.76"/></clipPath></defs><g id="Calque_1-2"><g><g class="cls-2"><g class="cls-7"><g class="cls-20"><g class="cls-10"><path class="cls-6" d="m17.16,25.29h0c.34.45.35,1.07.02,1.52-6.21,8.4-5.54,18.91-.38,30.52,4.65-6.28,11.04-12.58,18.55-18.77,7.85-6.47,15.53-11.68,22.79-15.02-9.69-7.39-19.44-10.38-28.83-6.5-.52.21-1.11.06-1.46-.39h-.01c-.46-.61-.3-1.47.34-1.86.53-.32,1.07-.64,1.6-.94-3.2,1.78-6.3,3.89-9.25,6.32-3.62,2.98-6.83,6.28-9.56,9.82,1.32-1.65,2.76-3.26,4.32-4.83.53-.53,1.41-.48,1.87.12"/></g></g></g></g><g class="cls-9"><g class="cls-8"><g class="cls-21"><g class="cls-14"><path class="cls-3" d="m89.24,21.65c.54.52.51,1.4-.07,1.88h0c-.43.36-1.05.38-1.51.06-8.3-5.88-18.43-5.15-29.53-.05,6.38,4.87,12.74,11.65,18.94,19.64,6,7.73,10.86,15.27,14.02,22.4,7.47-10.13,10.42-20.23,6.25-29.76-.22-.51-.08-1.12.35-1.47h.01c.58-.49,1.45-.35,1.85.29,1.69,2.68,3.12,5.38,4.29,8.09-2.04-4.95-4.82-9.74-8.3-14.21C79.62,8,54.06.15,29.78,13.85c18.99-10.55,41.66-9.28,59.46,7.8"/></g></g></g></g><g class="cls-13"><path class="cls-5" d="m27.84,16.64h.01c.34.46.94.61,1.46.4,9.38-3.87,19.14-.89,28.83,6.5,11.1-5.1,21.23-5.83,29.53.05.46.33,1.08.3,1.51-.05h0c.58-.48.61-1.36.07-1.88C71.44,4.57,48.77,3.3,29.78,13.85c-.53.3-1.07.61-1.6.94-.64.39-.8,1.25-.34,1.85"/></g><g class="cls-11"><g class="cls-12"><g class="cls-20"><g class="cls-15"><path class="cls-6" d="m103.84,42.72c7.51,18.27,4.83,38.88-11.26,55.01-.53.53-1.41.48-1.87-.12-.35-.44-.35-1.07-.02-1.52,6.21-8.4,5.55-18.9.4-30.52-4.65,6.31-11.06,12.63-18.6,18.84-7.81,6.44-15.45,11.63-22.68,14.97,9.67,7.36,19.4,10.32,28.76,6.46.52-.21,1.11-.06,1.46.39h0c.46.6.3,1.47-.34,1.86-2.08,1.25-4.16,2.34-6.26,3.27,4.94-2.17,9.69-5.11,14.11-8.75,18.23-15.02,25.82-37.8,16.31-59.9"/></g></g></g></g><g class="cls-18"><path class="cls-5" d="m97.71,34.33h-.01c-.43.37-.57.97-.35,1.49,4.17,9.54,1.23,19.63-6.25,29.76,5.16,11.61,5.81,22.11-.4,30.52-.33.45-.33,1.07.02,1.52h0c.46.59,1.34.65,1.87.12,16.09-16.13,18.78-36.74,11.26-55.01-1.17-2.71-2.59-5.42-4.29-8.09-.4-.63-1.27-.77-1.85-.3"/></g><g class="cls-19"><path class="cls-4" d="m18.65,99.44h0c.43-.36,1.05-.38,1.51-.05,8.33,5.9,18.5,5.15,29.64,0-6.4-4.87-12.78-11.67-19-19.68-6-7.73-10.85-15.26-14.01-22.38-7.51,10.15-10.49,20.28-6.31,29.83.23.51.08,1.12-.35,1.47h0c-.58.48-1.45.34-1.85-.29-2.21-3.51-3.96-7.08-5.27-10.66,2.06,5.75,5.14,11.31,9.14,16.46,1.93,2.49,4.01,4.79,6.21,6.89-.29-.52-.18-1.19.3-1.59"/></g><g class="cls-17"><path class="cls-4" d="m10.13,88.64h0c.43-.36.58-.97.35-1.48-4.18-9.56-1.2-19.68,6.31-29.83-5.16-11.62-5.82-22.12.38-30.53.33-.45.33-1.07-.02-1.52h0c-.46-.6-1.34-.65-1.87-.12-1.57,1.57-3.01,3.18-4.33,4.83C2.99,40.32-1.02,52.73.22,65.5c.42,4.11,1.36,8.19,2.79,12.18,1.31,3.58,3.05,7.15,5.26,10.66.4.64,1.27.78,1.85.3"/></g><g class="cls-16"><path class="cls-4" d="m80.03,106.25h0c-.34-.45-.94-.61-1.46-.4-9.36,3.86-19.09.9-28.76-6.46-11.14,5.15-21.31,5.9-29.64,0-.46-.33-1.08-.3-1.51.05-.48.4-.59,1.07-.3,1.59,11.37,10.86,26.06,16.36,41.27,14.31,4.69-.66,9.32-2,13.8-3.97,2.1-.93,4.18-2.02,6.26-3.27.64-.39.8-1.26.34-1.85"/></g></g></g></svg>