<?xml version="1.0" encoding="UTF-8"?><svg id="Calque_2" xmlns="http://www.w3.org/2000/svg" xmlns:xlink="http://www.w3.org/1999/xlink" viewBox="0 0 95.86 64.03"><defs><style>.cls-1{fill:none;}.cls-2{clip-path:url(#clippath);}.cls-3{fill:#e4e4e5;}.cls-4{fill:#cbcacc;}.cls-5{clip-path:url(#clippath-1);}.cls-6{clip-path:url(#clippath-4);}.cls-7{clip-path:url(#clippath-3);}.cls-8{clip-path:url(#clippath-2);}.cls-9{clip-path:url(#clippath-6);}.cls-10{clip-path:url(#clippath-5);}</style><clipPath id="clippath"><rect class="cls-1" width="95.86" height="64.03"/></clipPath><clipPath id="clippath-1"><rect class="cls-1" width="95.86" height="64.03"/></clipPath><clipPath id="clippath-2"><rect class="cls-1" width="95.86" height="64.03"/></clipPath><clipPath id="clippath-3"><rect class="cls-1" width="95.86" height="64.03"/></clipPath><clipPath id="clippath-4"><rect class="cls-1" width="95.86" height="64.03"/></clipPath><clipPath id="clippath-5"><rect class="cls-1" width="95.86" height="64.03"/></clipPath><clipPath id="clippath-6"><rect class="cls-1" width="95.86" height="64.03"/></clipPath></defs><g id="Calque_1-2"><g><g class="cls-2"><path class="cls-3" d="m48.59,0C39.03,0,31.28,7.75,31.28,17.31c0,3.95,1.32,7.59,3.55,10.5l14.39-18.92h-1.55s-1.54,0-1.54,0c-1.64,0-3.18.11-4.29.33-.67.13-1.28.38-1.76.72-.57.4-1.29,1.26-1.76,2.1-.06.1-.13.25-.23.45l-.84-.19,1.41-5.43h18.03l-14.32,19.15c.93-.08,1.3-.1,2.06-.1.58,0,1.46.03,2.65.1l2.54.15c.92.05,1.69.08,2.28.08,1.31,0,2.17-.1,3.01-.36.66-.2,1.28-.5,1.85-.9,1-.69,1.98-1.81,2.57-2.93.06-.11.15-.28.26-.51l.76.2c-.25.95-.38,1.31-.76,2.16-.77,1.72-1.64,2.87-2.83,3.76-1.23.91-2.59,1.35-4.19,1.38h-.24c-1.19,0-2.11-.1-4.96-.53-2.9-.44-4.37-.6-5.83-.6-.98,0-1.88.07-2.82.22-1.24.2-1.73.35-2.86.86,3.17,3.45,7.71,5.61,12.76,5.61,9.56,0,17.31-7.75,17.31-17.31S58.15,0,48.59,0"/></g><g class="cls-5"><path class="cls-4" d="m15.93,46.63H2.68l-1.63,3.6c.54-.29.76-.39,1.23-.58.75-.3,1.58-.53,2.38-.67.69-.12,1.34-.18,2.38-.21.46-.01.9-.02,1.31-.02h1.96L0,63.48h14.57l1.68-3.84c-.59.34-.79.44-1.24.65-.85.38-1.77.67-2.72.83-.75.13-1.6.21-2.65.23-.35,0-.8.01-1.35.01h-2.58l10.22-14.74Z"/></g><g class="cls-8"><path class="cls-4" d="m59.74,63.48c-.26-.23-.35-.33-.52-.59-.11-.17-.19-.34-.26-.51-.14-.38-.23-.95-.23-1.48v-11.14c.01-1.13.04-1.44.19-1.9.06-.18.14-.36.24-.53.17-.29.29-.42.63-.7h-5.41c.35.3.47.42.63.67.11.17.2.36.26.55.13.41.17.81.17,1.82,0,.51,0,.85,0,1.01v10.09c0,.59-.1,1.22-.27,1.63-.07.17-.16.34-.27.49-.13.19-.22.29-.51.59h5.35Z"/></g><g class="cls-7"><path class="cls-4" d="m76.66,46.78c-.42-.14-.58-.18-1.03-.27-.97-.2-1.9-.3-2.96-.3-1.81,0-3.38.29-4.81.89-.85.36-1.63.82-2.32,1.38-2.08,1.67-3.21,4.1-3.21,6.89s1.09,5.05,3.08,6.62c1.64,1.3,3.75,1.95,6.3,1.95,1.59,0,3.07-.24,4.73-.76.06-.02.15-.05.27-.09v-3.06c-.4.27-.54.36-.79.5-.32.19-.67.36-1.04.51-1.02.43-1.94.63-2.94.63-1.74,0-3.24-.62-4.34-1.81-1.09-1.18-1.68-2.82-1.68-4.67s.55-3.4,1.52-4.55c.42-.5.94-.92,1.53-1.25.95-.53,2.06-.81,3.26-.81,1.03,0,2.03.2,3.03.61.62.25.85.38,1.39.76v-3.17Z"/></g><g class="cls-6"><path class="cls-4" d="m91.44,55.83v4.11c0,.91-.01,1.24-.07,1.72-.03.26-.09.5-.18.73-.12.32-.32.6-.61.88-.05.05-.13.12-.23.21h5.39c-.22-.22-.31-.31-.45-.52-.13-.19-.24-.37-.31-.55-.16-.39-.21-.69-.22-1.52-.01-.5-.01-.79-.01-.87v-9.27s.01-1,.01-1c0-.74.06-1.31.19-1.78.06-.22.15-.43.27-.62.18-.29.3-.42.67-.71h-5.5c.32.26.42.39.61.69.12.19.22.39.28.59.13.39.18.89.18,1.77v4.1h-7.56v-3.08c0-.93.01-1.54.05-1.99.02-.28.06-.52.13-.73.12-.36.42-.87.7-1.15.04-.04.1-.1.19-.18h-5.4c.32.33.41.43.55.65.12.17.22.37.29.57.15.43.17.66.19,1.78v1.07s.01,9.22.01,9.22c0,.94-.01,1.35-.07,1.78-.03.22-.08.44-.17.67-.14.37-.34.66-.65.95-.04.04-.1.09-.19.17h5.33c-.23-.24-.31-.34-.45-.55-.1-.16-.19-.34-.27-.53-.18-.44-.23-.76-.25-1.47,0-.36-.01-.69-.01-1.01v-4.08h7.56Z"/></g><g class="cls-10"><path class="cls-4" d="m18.23,46.63c.33.27.45.4.61.68.11.18.19.38.24.59.06.25.1.51.11.77,0,.19.01.53.01,1.05v.97s0,4.82,0,4.82c0,1.7.01,2.29.07,2.97.09,1.21.48,2.21,1.18,3.1.71.89,1.68,1.56,2.84,1.98.9.32,1.92.48,3.07.48,1.27,0,2.5-.19,3.41-.53.95-.35,1.87-.97,2.51-1.68.78-.87,1.22-1.92,1.36-3.26.09-.8.11-1.52.11-3.02v-5.8s0-.13,0-.13c0-.85.07-1.39.15-1.67.17-.6.48-.95.75-1.16.11-.08.14-.11.19-.15h-4.99c.2.31.27.44.37.73.06.2.11.41.14.63.08.6.11,1.36.11,2.8v5.23c0,1.45-.04,2.18-.14,2.86-.07.45-.22.87-.43,1.23-.42.71-1.17,1.23-2.08,1.45-.36.09-.76.14-1.2.14-.87,0-1.62-.18-2.29-.55-.42-.23-.77-.53-1-.87-.46-.67-.6-1.35-.61-3.08l-.02-2.12v-4.27c0-1.43.03-2.21.11-2.8.06-.44.19-.84.41-1.21.02-.03.05-.09.09-.15h-5.1Z"/></g><g class="cls-9"><path class="cls-4" d="m42.24,54.81c.24,0,.54-.03.88-.08.91-.13,1.52-.33,2.12-.69.31-.18.58-.4.79-.63.43-.49.66-1.13.66-1.9,0-.88-.3-1.58-.87-2.07-.33-.28-.72-.49-1.14-.61-.64-.18-1.44-.28-2.27-.28-.14,0-.23,0-.44,0v6.24c.13,0,.19,0,.27,0m-.27,5.2c0,.31,0,.59,0,.85.01.78.07,1.18.22,1.56.07.18.17.35.29.51.15.21.22.29.47.55h-5.36c.31-.29.41-.39.56-.59.12-.16.22-.34.29-.53.14-.37.19-.83.19-1.63v-11.06c0-.89-.05-1.42-.17-1.8-.07-.21-.16-.42-.29-.61-.16-.24-.27-.36-.57-.63h4.35c.54,0,1.06,0,1.56.02,1.34.04,2.13.12,2.88.29,1.08.25,2.04.79,2.74,1.51.75.79,1.14,1.73,1.14,2.77,0,.43-.07.87-.21,1.3-.25.76-.66,1.36-1.33,1.92-.59.49-1.23.86-2.08,1.2-.3.12-.42.16-.75.26l2.61,3.08c.32.37.73.83,1.23,1.37.79.86,1.32,1.4,1.91,1.96.26.24.5.46.73.66.22.19.33.28.61.51h-2.12c-.31,0-.6,0-.87-.01-.73-.02-1.19-.13-1.67-.39-.57-.31-1.14-.76-1.74-1.38-.19-.19-.46-.5-.82-.91-.32-.36-.55-.64-.7-.81l-3.12-3.74v3.79Z"/></g></g></g></svg>